<?xml version="1.0" standalone="no"?>
<!DOCTYPE svg PUBLIC "-//W3C//DTD SVG 20010904//EN"
 "http://www.w3.org/TR/2001/REC-SVG-20010904/DTD/svg10.dtd">
<svg version="1.0" xmlns="http://www.w3.org/2000/svg"
 width="1200.000000pt" height="1200.000000pt" viewBox="0 0 1200.000000 1200.000000"
 preserveAspectRatio="xMidYMid meet">
<g transform="translate(0.000000,1200.000000) scale(0.100000,-0.100000)" stroke="none">
<path d="M9665 11675 c-205 -33 -379 -83 -605 -172 -558 -221 -1136 -597
-1546 -1007 -165 -166 -261 -284 -342 -421 -141 -237 -168 -421 -79 -537 105
-138 327 -126 639 35 65 33 122 65 127 71 5 6 -50 -3 -122 -22 -174 -43 -306
-60 -342 -44 -26 12 -27 16 -23 66 18 223 450 743 971 1169 649 531 1260 811
1669 766 154 -17 236 -59 281 -143 19 -36 22 -56 22 -156 -1 -106 -4 -124 -37
-221 -136 -395 -501 -948 -1138 -1719 l-175 -212 -50 6 c-531 63 -1072 -4
-1690 -209 -977 -324 -1838 -930 -2119 -1492 -61 -123 -87 -211 -93 -323 -21
-385 265 -588 762 -541 553 52 1231 358 1980 892 212 151 498 378 715 567 199
174 635 610 776 776 60 72 120 142 134 157 l25 27 110 -24 c85 -20 409 -122
560 -178 16 -6 15 -4 -5 14 -49 41 -287 150 -445 202 -88 29 -162 53 -163 54
-2 1 52 71 121 156 531 656 891 1285 977 1710 23 112 27 263 9 348 -39 191
-188 328 -424 391 -105 28 -348 35 -480 14z m-807 -2611 c17 -3 32 -9 32 -13
0 -16 -220 -262 -380 -425 -750 -765 -1707 -1423 -2410 -1657 -205 -68 -328
-92 -480 -93 -155 -1 -210 15 -280 83 -60 57 -74 105 -67 216 7 102 28 177 77
283 184 393 651 786 1335 1122 526 259 1099 434 1605 489 89 10 512 6 568 -5z"/>
<path d="M5160 11653 c-25 -1 -117 -7 -205 -13 -687 -46 -1395 -180 -1980
-374 -265 -88 -399 -143 -630 -256 -556 -273 -888 -601 -955 -947 -7 -34 -11
-102 -8 -151 3 -75 9 -100 36 -154 74 -150 241 -261 491 -324 85 -22 304 -45
291 -32 -3 3 -38 20 -79 37 -181 77 -329 192 -376 292 -133 287 295 745 1030
1104 682 332 1503 542 2435 622 257 21 962 25 1205 5 404 -33 750 -79 1093
-147 228 -46 500 -112 600 -146 64 -22 116 -25 110 -6 -11 32 -258 136 -488
206 -474 143 -1056 245 -1605 281 -134 9 -850 11 -965 3z"/>
<path d="M4946 11065 c-21 -7 -64 -31 -95 -51 -80 -54 -405 -383 -552 -559
-765 -918 -1753 -2618 -1859 -3198 -25 -139 4 -238 81 -277 49 -25 84 -25 154
1 112 42 326 202 361 271 l15 30 -63 -36 c-80 -44 -179 -82 -242 -91 l-49 -8
6 46 c39 283 725 1415 1492 2461 571 779 930 1155 1104 1156 18 0 49 -10 68
-22 l35 -21 -7 24 c-37 123 -163 238 -300 273 -72 19 -98 19 -149 1z"/>
<path d="M4644 8341 c-111 -65 -224 -225 -224 -319 0 -104 114 -231 188 -208
10 4 72 67 136 142 122 140 207 216 264 235 17 6 32 15 32 21 0 22 -78 83
-150 117 -104 50 -176 53 -246 12z"/>
<path d="M10224 8341 c-111 -65 -224 -225 -224 -319 0 -104 114 -231 188 -208
10 4 72 67 136 142 122 140 207 216 264 235 17 6 32 15 32 21 0 22 -78 83
-150 117 -104 50 -176 53 -246 12z"/>
<path d="M6455 6236 c-143 -38 -309 -109 -455 -196 l-35 -21 -84 56 c-111 74
-158 97 -271 131 -83 25 -111 29 -220 29 -103 0 -131 -3 -160 -19 -62 -33 -99
-66 -126 -112 -24 -41 -27 -56 -28 -152 -1 -128 15 -200 73 -334 55 -124 138
-265 265 -448 76 -110 135 -180 243 -288 78 -79 147 -142 152 -140 29 10 391
309 493 407 251 241 472 511 556 677 60 119 80 253 48 328 -17 41 -67 80 -121
95 -70 19 -230 13 -330 -13z m275 -114 c23 -18 23 -19 6 -70 -10 -29 -22 -54
-27 -58 -5 -3 -18 -23 -30 -45 -26 -51 -91 -138 -198 -264 -113 -132 -477
-497 -569 -570 l-74 -59 -34 40 c-56 63 -179 217 -213 265 -206 290 -314 484
-342 618 -14 65 -4 93 42 117 49 25 118 13 239 -41 110 -49 190 -104 329 -229
73 -65 87 -74 100 -62 158 135 265 207 419 285 169 85 303 113 352 73z"/>
<path d="M3455 5104 c-428 -60 -791 -184 -1310 -446 -363 -183 -783 -468
-1082 -735 -127 -113 -228 -268 -253 -390 -23 -107 25 -219 112 -265 81 -43
339 -24 448 33 l35 18 -110 1 c-136 1 -211 25 -231 76 -19 46 10 95 129 220
275 288 806 699 1232 953 519 310 1030 470 1345 422 211 -32 297 -144 254
-331 -66 -296 -357 -779 -1194 -1985 -596 -860 -869 -1283 -1005 -1560 -113
-230 -137 -342 -93 -424 33 -61 94 -94 158 -85 127 18 284 91 372 175 l53 50
-40 -17 c-164 -66 -225 -80 -225 -50 0 27 91 193 155 281 177 246 437 544 763
876 647 659 1343 1239 2042 1704 193 128 493 315 505 315 3 0 -50 -64 -116
-142 -237 -279 -534 -694 -751 -1048 -466 -761 -708 -1412 -685 -1845 7 -130
25 -203 75 -305 43 -88 136 -186 226 -239 222 -131 602 -166 933 -86 417 101
870 318 1133 543 8 7 -104 -48 -250 -122 -450 -229 -693 -315 -978 -346 -143
-16 -391 -8 -492 15 -346 79 -446 343 -310 816 82 287 244 625 510 1064 516
850 1255 1781 1555 1957 43 25 58 28 107 25 38 -2 64 -10 78 -22 19 -17 20
-17 20 0 0 40 -68 143 -145 220 -129 129 -197 149 -337 99 -358 -129 -1196
-698 -1947 -1322 -545 -453 -956 -845 -1365 -1302 -61 -68 -62 -69 122 177
532 710 986 1396 1203 1818 156 302 219 486 219 641 0 273 -152 475 -415 549
-44 13 -108 18 -240 20 -99 2 -193 1 -210 -1z"/>
<path d="M6665 3658 c-121 -66 -288 -373 -262 -480 9 -35 54 -87 84 -99 33
-12 46 -4 144 96 90 93 211 195 262 221 17 9 51 16 75 16 43 -1 44 -1 37 26
-17 66 -131 180 -218 217 -42 18 -93 19 -122 3z"/>
<path d="M7308 3007 c-82 -70 -244 -258 -371 -431 -105 -143 -202 -244 -459
-478 -375 -341 -712 -594 -831 -623 l-27 -7 30 66 c132 296 506 862 690 1046
87 88 125 108 176 92 32 -9 34 -9 34 12 0 96 -193 286 -291 286 -153 0 -853
-987 -994 -1400 -30 -88 -32 -148 -6 -198 22 -44 109 -128 146 -142 112 -43
286 49 600 315 144 122 405 369 532 503 51 53 93 94 93 91 0 -3 -36 -66 -81
-140 -105 -174 -212 -394 -241 -492 -22 -77 -22 -77 -3 -133 38 -112 124 -200
212 -219 45 -9 55 0 36 34 -14 24 -15 34 -3 75 65 231 764 902 1345 1290 130
87 282 176 299 176 4 0 -25 -35 -64 -77 -250 -269 -585 -798 -660 -1039 -26
-86 -25 -137 5 -201 26 -58 104 -147 147 -169 113 -59 300 53 760 454 l38 33
-16 -43 c-25 -71 -29 -158 -10 -216 21 -63 102 -179 150 -216 56 -42 93 -44
173 -7 174 81 632 429 1003 762 55 49 100 87 100 85 0 -3 -23 -40 -51 -83
-128 -195 -240 -482 -224 -573 9 -49 47 -110 96 -154 90 -82 158 -84 298 -11
198 105 512 374 904 775 333 341 383 400 334 400 -7 0 -97 -79 -202 -176 -368
-342 -615 -549 -810 -679 -97 -65 -222 -131 -231 -123 -10 10 24 111 65 190
107 211 434 646 522 697 36 20 36 42 4 108 -45 90 -131 173 -180 173 -34 0
-169 -108 -385 -309 -145 -135 -231 -206 -450 -368 -364 -270 -679 -473 -735
-473 -24 0 -18 23 28 112 153 298 498 707 787 934 376 295 771 447 940 362 87
-44 116 -160 70 -280 -24 -65 -24 -65 -1 -44 36 33 72 132 73 201 1 136 -91
229 -269 271 -85 20 -269 13 -393 -15 -476 -109 -1033 -491 -1388 -953 -132
-171 -486 -459 -698 -568 -94 -48 -106 -50 -99 -12 11 50 123 266 213 408 162
257 439 638 571 787 34 37 61 73 61 80 0 66 -80 195 -147 238 -39 24 -55 29
-83 24 -188 -35 -975 -642 -1483 -1146 -97 -97 -170 -164 -161 -150 117 183
421 607 538 751 74 91 210 234 248 262 31 21 52 25 86 14 18 -6 22 -4 22 15 0
67 -114 209 -202 253 -79 40 -107 35 -180 -27z"/>
</g>
</svg>
